<svg class="diagram-root" style="background: #f5f6f6" xmlns="http://www.w3.org/2000/svg" xmlns:xlink="http://www.w3.org/1999/xlink"><style>.diagram-root { font-family: "Helvetica Neue", sans-serif; font-size: 12px; } .t { overflow: visible; } .t-bg { y: 40; fill: #fff;   } .th { fill: #005aa0;   } .tht { fill: #fff; font-size: 14px;  } .tf { fill: #323c46; overflow: visible; } .tf.pk { fill: #005aa0; font-weight: bold; } .tf.fk { font-weight: bold; } .ty { fill: #adb1b5; font-weight: normal; text-anchor: end; } .r { fill: transparent; stroke: #c3c3c3; stroke-width: 1; } .l { stroke: 1; } .i { fill: #c2c7ce; stroke: #c2c7ce; } .i.ix { fill: #afb3b6; stroke: #000; } .fa { fill: transparent; overflow: visible; } .fa .bg.hover { fill: #f7f7f7; } .c { cy: 12; r: 4; stroke: #d2d2dc; fill: #d2d2dc; } .hr { fill: transparent; stroke: #323c46; stroke-opacity: 0.035; stroke-width: 13; } .dc { stroke: #fa5a3c; fill: #fa5a3c; } .x { stroke: white; stroke-width: 1; } .hl .th { fill: #1b9bff; } .hl .tht {  } .fhl .bg { fill: #e7f4ff; } .fhls .bg {  } .r.hl { stroke: #1b9bff; } .dim { opacity: 0.25; }</style><g class="drawing-wrapper" transform="translate(-106, -2) scale(1,1)"><g class="rs"><path d="M 244.68 290 m -1, 0 a 1,1 0 1,0 2,0 a 1,1 0 1,0 -2,0 M 244.68 290 m -0.5, 0 a 0.5,0.5 0 1,0 1,0 a 0.5,0.5 0 1,0 -1,0  M244.68 290 L244.68 290 256.68 290 M 244.68 296 m -1, 0 a 1,1 0 1,0 2,0 a 1,1 0 1,0 -2,0 M 244.68 296 m -0.5, 0 a 0.5,0.5 0 1,0 1,0 a 0.5,0.5 0 1,0 -1,0  M244.68 296 L244.68 296 251.68 290 244.68 284 M 244.68 284 m -1, 0 a 1,1 0 1,0 2,0 a 1,1 0 1,0 -2,0 M 244.68 284 m -0.5, 0 a 0.5,0.5 0 1,0 1,0 a 0.5,0.5 0 1,0 -1,0  M256.68 290 C 314.184 290, 311.37 95, 261.37 95 M 249.37 95 m -1, 0 a 1,1 0 1,0 2,0 a 1,1 0 1,0 -2,0 M 249.37 95 m -0.5, 0 a 0.5,0.5 0 1,0 1,0 a 0.5,0.5 0 1,0 -1,0  M249.37 95 L249.37 95 261.37 95 M255.37 101 L255.37 101 255.37 89" id="h884437598" class="r"></path><path d="M 136 315 m -1, 0 a 1,1 0 1,0 2,0 a 1,1 0 1,0 -2,0 M 136 315 m -0.5, 0 a 0.5,0.5 0 1,0 1,0 a 0.5,0.5 0 1,0 -1,0  M136 315 L136 315 124 315 M 136 321 m -1, 0 a 1,1 0 1,0 2,0 a 1,1 0 1,0 -2,0 M 136 321 m -0.5, 0 a 0.5,0.5 0 1,0 1,0 a 0.5,0.5 0 1,0 -1,0  M136 321 L136 321 129 315 136 309 M 136 309 m -1, 0 a 1,1 0 1,0 2,0 a 1,1 0 1,0 -2,0 M 136 309 m -0.5, 0 a 0.5,0.5 0 1,0 1,0 a 0.5,0.5 0 1,0 -1,0  M124 315 C 79.01010816003469 315, 82.61010816003468 421, 118 421 M 130 421 m -1, 0 a 1,1 0 1,0 2,0 a 1,1 0 1,0 -2,0 M 130 421 m -0.5, 0 a 0.5,0.5 0 1,0 1,0 a 0.5,0.5 0 1,0 -1,0  M130 421 L130 421 118 421 M124 427 L124 427 124 415" id="h108559751" class="r"></path><path d="M 518 271 m -1, 0 a 1,1 0 1,0 2,0 a 1,1 0 1,0 -2,0 M 518 271 m -0.5, 0 a 0.5,0.5 0 1,0 1,0 a 0.5,0.5 0 1,0 -1,0  M518 271 L518 271 506 271 M 518 277 m -1, 0 a 1,1 0 1,0 2,0 a 1,1 0 1,0 -2,0 M 518 277 m -0.5, 0 a 0.5,0.5 0 1,0 1,0 a 0.5,0.5 0 1,0 -1,0  M518 277 L518 277 511 271 518 265 M 518 265 m -1, 0 a 1,1 0 1,0 2,0 a 1,1 0 1,0 -2,0 M 518 265 m -0.5, 0 a 0.5,0.5 0 1,0 1,0 a 0.5,0.5 0 1,0 -1,0  M506 271 Q 443.67 271, 381.34 268 T 256.68 265 M 244.68 265 m -1, 0 a 1,1 0 1,0 2,0 a 1,1 0 1,0 -2,0 M 244.68 265 m -0.5, 0 a 0.5,0.5 0 1,0 1,0 a 0.5,0.5 0 1,0 -1,0  M244.68 265 L244.68 265 256.68 265 M250.68 271 L250.68 271 250.68 259" id="h3571354429" class="r"></path><path d="M 633.38 296 m -1, 0 a 1,1 0 1,0 2,0 a 1,1 0 1,0 -2,0 M 633.38 296 m -0.5, 0 a 0.5,0.5 0 1,0 1,0 a 0.5,0.5 0 1,0 -1,0  M633.38 296 L633.38 296 645.38 296 M 633.38 302 m -1, 0 a 1,1 0 1,0 2,0 a 1,1 0 1,0 -2,0 M 633.38 302 m -0.5, 0 a 0.5,0.5 0 1,0 1,0 a 0.5,0.5 0 1,0 -1,0  M633.38 302 L633.38 302 640.38 296 633.38 290 M 633.38 290 m -1, 0 a 1,1 0 1,0 2,0 a 1,1 0 1,0 -2,0 M 633.38 290 m -0.5, 0 a 0.5,0.5 0 1,0 1,0 a 0.5,0.5 0 1,0 -1,0  M645.38 296 C 695.38 296, 700.18 89, 637.38 89 M 625.38 89 m -1, 0 a 1,1 0 1,0 2,0 a 1,1 0 1,0 -2,0 M 625.38 89 m -0.5, 0 a 0.5,0.5 0 1,0 1,0 a 0.5,0.5 0 1,0 -1,0  M625.38 89 L625.38 89 637.38 89 M631.38 95 L631.38 95 631.38 83" id="h3974232585" class="r dim"></path></g><g class="hrs"></g><g class="ts"><svg width="133.38" height="125" x="492" y="32" id="h1794948770" class="t dim"><rect height="40" width="133.38" class="th"></rect><text x="13" y="25" class="tht">Diseases</text><rect height="85" width="133.38" class="t-bg"></rect><text x="13" y="61" class="tf pk">id<tspan x="120.38" class="ty">int</tspan></text><path d="M7,14A2,2 0 0,1 5,12A2,2 0 0,1 7,10A2,2 0 0,1 9,12A2,2 0 0,1 7,14M12.65,10C11.83,7.67 9.61,6 7, 6A6, 6 0 0, 0 1, 12A6, 6 0 0, 0 7, 18C9.61, 18 11.83, 16.33 12.65, 14H17V18H21V14H23V10H12.65Z" class="i pk" transform="translate(87.706171875, 48) scale(0.65)"></path><text x="13" y="86" class="tf">name<tspan x="120.38" class="ty">string</tspan></text><text x="13" y="111" class="tf">description<tspan x="120.38" class="ty">string</tspan></text></svg><svg width="121.37" height="100" x="128" y="38" id="h16875077" class="t"><rect height="40" width="121.37" class="th"></rect><text x="13" y="25" class="tht">Doctors</text><rect height="60" width="121.37" class="t-bg"></rect><text x="13" y="61" class="tf pk">doctorid<tspan x="108.37" class="ty">int</tspan></text><path d="M7,14A2,2 0 0,1 5,12A2,2 0 0,1 7,10A2,2 0 0,1 9,12A2,2 0 0,1 7,14M12.65,10C11.83,7.67 9.61,6 7, 6A6, 6 0 0, 0 1, 12A6, 6 0 0, 0 7, 18C9.61, 18 11.83, 16.33 12.65, 14H17V18H21V14H23V10H12.65Z" class="i pk" transform="translate(75.696171875, 48) scale(0.65)"></path><text x="13" y="86" class="tf">name<tspan x="108.37" class="ty">string</tspan></text><path d="M814.545 581.818v-23.273H535.273v-93.09h-46.546v93.09H209.455v139.637H256V605.09h232.727v93.09h46.546v-93.09H768v93.09h46.545V581.819zM674.91 465.455H349.091V139.636h325.818v325.819zM325.82 884.364H139.635V698.182h186.182v186.182z m279.272 0H418.909V698.182h186.182v186.182z m279.273 0H698.182V698.182h186.182v186.182zM395.636 418.909h232.728V186.182H395.636v232.727zM186.182 837.82h93.09v-93.092h-93.09v93.091z m279.273 0h93.09v-93.092h-93.09v93.091z m279.272 0h93.091v-93.092h-93.09v93.091z" class="i ix" transform="translate(64.02625, 75) scale(0.014)"></path></svg><svg width="130.04" height="175" x="130" y="364" id="h3676580549" class="t"><rect height="40" width="130.04" class="th"></rect><text x="13" y="25" class="tht">Patients</text><rect height="135" width="130.04" class="t-bg"></rect><text x="13" y="61" class="tf pk">patientsid<tspan x="117.03999999999999" class="ty">int</tspan></text><path d="M7,14A2,2 0 0,1 5,12A2,2 0 0,1 7,10A2,2 0 0,1 9,12A2,2 0 0,1 7,14M12.65,10C11.83,7.67 9.61,6 7, 6A6, 6 0 0, 0 1, 12A6, 6 0 0, 0 7, 18C9.61, 18 11.83, 16.33 12.65, 14H17V18H21V14H23V10H12.65Z" class="i pk" transform="translate(84.36617187499999, 48) scale(0.65)"></path><text x="13" y="86" class="tf">name<tspan x="117.03999999999999" class="ty">int</tspan></text><text x="13" y="111" class="tf">birthday<tspan x="117.03999999999999" class="ty">date</tspan></text><text x="13" y="136" class="tf">insurance<tspan x="117.03999999999999" class="ty">string</tspan></text><text x="13" y="161" class="tf">ssn<tspan x="117.03999999999999" class="ty">int</tspan></text></svg><svg width="115.38" height="125" x="518" y="189" id="h3047656030" class="t"><rect height="40" width="115.38" class="th"></rect><text x="13" y="25" class="tht">Diagnoses</text><rect height="85" width="115.38" class="t-bg"></rect><text x="13" y="61" class="tf pk">id<tspan x="102.38" class="ty">int</tspan></text><path d="M7,14A2,2 0 0,1 5,12A2,2 0 0,1 7,10A2,2 0 0,1 9,12A2,2 0 0,1 7,14M12.65,10C11.83,7.67 9.61,6 7, 6A6, 6 0 0, 0 1, 12A6, 6 0 0, 0 7, 18C9.61, 18 11.83, 16.33 12.65, 14H17V18H21V14H23V10H12.65Z" class="i pk" transform="translate(69.706171875, 48) scale(0.65)"></path><text x="13" y="86" class="tf fk">visitid<tspan x="102.38" class="ty">int</tspan></text><text x="13" y="111" class="tf fk">diseasesid<tspan x="102.38" class="ty">int</tspan></text></svg><svg width="108.68" height="150" x="136" y="183" id="h3280351983" class="t hl"><rect height="40" width="108.68" class="th"></rect><text x="13" y="25" class="tht">Visits</text><rect height="110" width="108.68" class="t-bg"></rect><text x="13" y="61" class="tf">date<tspan x="95.68" class="ty">int</tspan></text><text x="13" y="86" class="tf pk">visitid<tspan x="95.68" class="ty">int</tspan></text><path d="M7,14A2,2 0 0,1 5,12A2,2 0 0,1 7,10A2,2 0 0,1 9,12A2,2 0 0,1 7,14M12.65,10C11.83,7.67 9.61,6 7, 6A6, 6 0 0, 0 1, 12A6, 6 0 0, 0 7, 18C9.61, 18 11.83, 16.33 12.65, 14H17V18H21V14H23V10H12.65Z" class="i pk" transform="translate(63.00617187500001, 73) scale(0.65)"></path><text x="13" y="111" class="tf fk">doctorid<tspan x="95.68" class="ty">int</tspan></text><text x="13" y="136" class="tf fk">patientid<tspan x="95.68" class="ty">int</tspan></text></svg></g></g><text class="qdbd-link" x="10" y="20">www.quickdatabasediagrams.com</text></svg>