<svg class="diagram-root" style="background: #f5f6f6" xmlns="http://www.w3.org/2000/svg" xmlns:xlink="http://www.w3.org/1999/xlink"><style>.diagram-root { font-family: "Helvetica Neue", sans-serif; font-size: 12px; } .t { overflow: visible; } .t-bg { y: 40; fill: #fff;   } .th { fill: #005aa0;   } .tht { fill: #fff; font-size: 14px;  } .tf { fill: #323c46; overflow: visible; } .tf.pk { fill: #005aa0; font-weight: bold; } .tf.fk { font-weight: bold; } .ty { fill: #adb1b5; font-weight: normal; text-anchor: end; } .r { fill: transparent; stroke: #c3c3c3; stroke-width: 1; } .l { stroke: 1; } .i { fill: #c2c7ce; stroke: #c2c7ce; } .i.ix { fill: #afb3b6; stroke: #000; } .fa { fill: transparent; overflow: visible; } .fa .bg.hover { fill: #f7f7f7; } .c { cy: 12; r: 4; stroke: #d2d2dc; fill: #d2d2dc; } .hr { fill: transparent; stroke: #323c46; stroke-opacity: 0.035; stroke-width: 13; } .dc { stroke: #fa5a3c; fill: #fa5a3c; } .x { stroke: white; stroke-width: 1; } .hl .th { fill: #1b9bff; } .hl .tht {  } .fhl .bg { fill: #e7f4ff; } .fhls .bg {  } .r.hl { stroke: #1b9bff; } .dim { opacity: 0.25; }</style><g class="drawing-wrapper" transform="translate(-81, 12) scale(1,1)"><g class="rs"><path d="M 433.71 175 m -1, 0 a 1,1 0 1,0 2,0 a 1,1 0 1,0 -2,0 M 433.71 175 m -0.5, 0 a 0.5,0.5 0 1,0 1,0 a 0.5,0.5 0 1,0 -1,0  M433.71 175 L433.71 175 445.71 175 M 433.71 181 m -1, 0 a 1,1 0 1,0 2,0 a 1,1 0 1,0 -2,0 M 433.71 181 m -0.5, 0 a 0.5,0.5 0 1,0 1,0 a 0.5,0.5 0 1,0 -1,0  M433.71 181 L433.71 181 440.71 175 433.71 169 M 433.71 169 m -1, 0 a 1,1 0 1,0 2,0 a 1,1 0 1,0 -2,0 M 433.71 169 m -0.5, 0 a 0.5,0.5 0 1,0 1,0 a 0.5,0.5 0 1,0 -1,0  M445.71 175 C 495.71 175, 613.31 258, 249.71 258 M 237.71 258 m -1, 0 a 1,1 0 1,0 2,0 a 1,1 0 1,0 -2,0 M 237.71 258 m -0.5, 0 a 0.5,0.5 0 1,0 1,0 a 0.5,0.5 0 1,0 -1,0  M237.71 258 L237.71 258 249.71 258 M243.71 264 L243.71 264 243.71 252" id="h917705174" class="r"></path><path d="M 317 200 m -1, 0 a 1,1 0 1,0 2,0 a 1,1 0 1,0 -2,0 M 317 200 m -0.5, 0 a 0.5,0.5 0 1,0 1,0 a 0.5,0.5 0 1,0 -1,0  M317 200 L317 200 305 200 M 317 206 m -1, 0 a 1,1 0 1,0 2,0 a 1,1 0 1,0 -2,0 M 317 206 m -0.5, 0 a 0.5,0.5 0 1,0 1,0 a 0.5,0.5 0 1,0 -1,0  M317 206 L317 206 310 200 317 194 M 317 194 m -1, 0 a 1,1 0 1,0 2,0 a 1,1 0 1,0 -2,0 M 317 194 m -0.5, 0 a 0.5,0.5 0 1,0 1,0 a 0.5,0.5 0 1,0 -1,0  M305 200 Q 287.59 200, 270.18 140 T 235.36 80 M 223.36 80 m -1, 0 a 1,1 0 1,0 2,0 a 1,1 0 1,0 -2,0 M 223.36 80 m -0.5, 0 a 0.5,0.5 0 1,0 1,0 a 0.5,0.5 0 1,0 -1,0  M223.36 80 L223.36 80 235.36 80 M229.36 86 L229.36 86 229.36 74" id="h1618921526" class="r"></path><path d="M 433.71 225 m -1, 0 a 1,1 0 1,0 2,0 a 1,1 0 1,0 -2,0 M 433.71 225 m -0.5, 0 a 0.5,0.5 0 1,0 1,0 a 0.5,0.5 0 1,0 -1,0  M433.71 225 L433.71 225 445.71 225 M 433.71 231 m -1, 0 a 1,1 0 1,0 2,0 a 1,1 0 1,0 -2,0 M 433.71 231 m -0.5, 0 a 0.5,0.5 0 1,0 1,0 a 0.5,0.5 0 1,0 -1,0  M433.71 231 L433.71 231 440.71 225 433.71 219 M 433.71 219 m -1, 0 a 1,1 0 1,0 2,0 a 1,1 0 1,0 -2,0 M 433.71 219 m -0.5, 0 a 0.5,0.5 0 1,0 1,0 a 0.5,0.5 0 1,0 -1,0  M445.71 225 C 479.501623057925 225, 484.727623057925 326, 437 326 M 425 326 m -1, 0 a 1,1 0 1,0 2,0 a 1,1 0 1,0 -2,0 M 425 326 m -0.5, 0 a 0.5,0.5 0 1,0 1,0 a 0.5,0.5 0 1,0 -1,0  M425 326 L425 326 437 326 M431 332 L431 332 431 320" id="h2846296302" class="r"></path><path d="M 109 358 m -1, 0 a 1,1 0 1,0 2,0 a 1,1 0 1,0 -2,0 M 109 358 m -0.5, 0 a 0.5,0.5 0 1,0 1,0 a 0.5,0.5 0 1,0 -1,0  M109 358 L109 358 97 358 M 109 364 m -1, 0 a 1,1 0 1,0 2,0 a 1,1 0 1,0 -2,0 M 109 364 m -0.5, 0 a 0.5,0.5 0 1,0 1,0 a 0.5,0.5 0 1,0 -1,0  M109 364 L109 364 102 358 109 352 M 109 352 m -1, 0 a 1,1 0 1,0 2,0 a 1,1 0 1,0 -2,0 M 109 352 m -0.5, 0 a 0.5,0.5 0 1,0 1,0 a 0.5,0.5 0 1,0 -1,0  M97 358 C 37.4 358, 41 80, 91 80 M 103 80 m -1, 0 a 1,1 0 1,0 2,0 a 1,1 0 1,0 -2,0 M 103 80 m -0.5, 0 a 0.5,0.5 0 1,0 1,0 a 0.5,0.5 0 1,0 -1,0  M103 80 L103 80 91 80 M97 86 L97 86 97 74" id="h2520213210" class="r"></path></g><g class="hrs"></g><g class="ts"><svg width="120.36" height="100" x="103" y="23" id="h850082920" class="t"><rect height="40" width="120.36" class="th"></rect><text x="13" y="25" class="tht">regions</text><rect height="60" width="120.36" class="t-bg"></rect><text x="13" y="61" class="tf pk">id<tspan x="107.36" class="ty">int</tspan></text><path d="M7,14A2,2 0 0,1 5,12A2,2 0 0,1 7,10A2,2 0 0,1 9,12A2,2 0 0,1 7,14M12.65,10C11.83,7.67 9.61,6 7, 6A6, 6 0 0, 0 1, 12A6, 6 0 0, 0 7, 18C9.61, 18 11.83, 16.33 12.65, 14H17V18H21V14H23V10H12.65Z" class="i pk" transform="translate(74.686171875, 48) scale(0.65)"></path><text x="13" y="86" class="tf">name<tspan x="107.36" class="ty">string</tspan></text><path d="M814.545 581.818v-23.273H535.273v-93.09h-46.546v93.09H209.455v139.637H256V605.09h232.727v93.09h46.546v-93.09H768v93.09h46.545V581.819zM674.91 465.455H349.091V139.636h325.818v325.819zM325.82 884.364H139.635V698.182h186.182v186.182z m279.272 0H418.909V698.182h186.182v186.182z m279.273 0H698.182V698.182h186.182v186.182zM395.636 418.909h232.728V186.182H395.636v232.727zM186.182 837.82h93.09v-93.092h-93.09v93.091z m279.273 0h93.09v-93.092h-93.09v93.091z m279.272 0h93.091v-93.092h-93.09v93.091z" class="i ix" transform="translate(63.01625, 75) scale(0.014)"></path></svg><svg width="90" height="100" x="335" y="269" id="h2794354149" class="t"><rect height="40" width="90" class="th"></rect><text x="13" y="25" class="tht">category</text><rect height="60" width="90" class="t-bg"></rect><text x="13" y="61" class="tf pk">id<tspan x="77" class="ty">int</tspan></text><path d="M7,14A2,2 0 0,1 5,12A2,2 0 0,1 7,10A2,2 0 0,1 9,12A2,2 0 0,1 7,14M12.65,10C11.83,7.67 9.61,6 7, 6A6, 6 0 0, 0 1, 12A6, 6 0 0, 0 7, 18C9.61, 18 11.83, 16.33 12.65, 14H17V18H21V14H23V10H12.65Z" class="i pk" transform="translate(44.326171875, 48) scale(0.65)"></path><text x="13" y="86" class="tf">name<tspan x="77" class="ty">int</tspan></text></svg><svg width="128.71" height="175" x="109" y="201" id="h2948373614" class="t"><rect height="40" width="128.71" class="th"></rect><text x="13" y="25" class="tht">users</text><rect height="135" width="128.71" class="t-bg"></rect><text x="13" y="61" class="tf pk">id<tspan x="115.71000000000001" class="ty">int</tspan></text><path d="M7,14A2,2 0 0,1 5,12A2,2 0 0,1 7,10A2,2 0 0,1 9,12A2,2 0 0,1 7,14M12.65,10C11.83,7.67 9.61,6 7, 6A6, 6 0 0, 0 1, 12A6, 6 0 0, 0 7, 18C9.61, 18 11.83, 16.33 12.65, 14H17V18H21V14H23V10H12.65Z" class="i pk" transform="translate(83.03617187500001, 48) scale(0.65)"></path><text x="13" y="86" class="tf">username<tspan x="115.71000000000001" class="ty">string</tspan></text><text x="13" y="111" class="tf">email<tspan x="115.71000000000001" class="ty">string</tspan></text><text x="13" y="136" class="tf">password<tspan x="115.71000000000001" class="ty">string</tspan></text><text x="13" y="161" class="tf fk">regionid<tspan x="115.71000000000001" class="ty">int</tspan></text></svg><svg width="116.71" height="225" x="317" y="18" id="h2471855060" class="t"><rect height="40" width="116.71" class="th"></rect><text x="13" y="25" class="tht">posts</text><rect height="185" width="116.71" class="t-bg"></rect><text x="13" y="61" class="tf pk">id<tspan x="103.71" class="ty">int</tspan></text><path d="M7,14A2,2 0 0,1 5,12A2,2 0 0,1 7,10A2,2 0 0,1 9,12A2,2 0 0,1 7,14M12.65,10C11.83,7.67 9.61,6 7, 6A6, 6 0 0, 0 1, 12A6, 6 0 0, 0 7, 18C9.61, 18 11.83, 16.33 12.65, 14H17V18H21V14H23V10H12.65Z" class="i pk" transform="translate(71.036171875, 48) scale(0.65)"></path><text x="13" y="86" class="tf">title<tspan x="103.71" class="ty">string</tspan></text><text x="13" y="111" class="tf">content<tspan x="103.71" class="ty">string</tspan></text><text x="13" y="136" class="tf">location<tspan x="103.71" class="ty">string</tspan></text><text x="13" y="161" class="tf fk">userid<tspan x="103.71" class="ty">int</tspan></text><text x="13" y="186" class="tf fk">regionid<tspan x="103.71" class="ty">int</tspan></text><text x="13" y="211" class="tf fk">categoryid<tspan x="103.71" class="ty">int</tspan></text></svg></g></g><text class="qdbd-link" x="10" y="20">www.quickdatabasediagrams.com</text></svg>