<svg class="diagram-root" style="background: #f5f6f6" xmlns="http://www.w3.org/2000/svg" xmlns:xlink="http://www.w3.org/1999/xlink"><style>.diagram-root { font-family: "Helvetica Neue", sans-serif; font-size: 12px; } .t { overflow: visible; } .t-bg { y: 40; fill: #fff;   } .th { fill: #005aa0;   } .tht { fill: #fff; font-size: 14px;  } .tf { fill: #323c46; overflow: visible; } .tf.pk { fill: #005aa0; font-weight: bold; } .tf.fk { font-weight: bold; } .ty { fill: #adb1b5; font-weight: normal; text-anchor: end; } .r { fill: transparent; stroke: #c3c3c3; stroke-width: 1; } .l { stroke: 1; } .i { fill: #c2c7ce; stroke: #c2c7ce; } .i.ix { fill: #afb3b6; stroke: #000; } .fa { fill: transparent; overflow: visible; } .fa .bg.hover { fill: #f7f7f7; } .c { cy: 12; r: 4; stroke: #d2d2dc; fill: #d2d2dc; } .hr { fill: transparent; stroke: #323c46; stroke-opacity: 0.035; stroke-width: 13; } .dc { stroke: #fa5a3c; fill: #fa5a3c; } .x { stroke: white; stroke-width: 1; } .hl .th { fill: #1b9bff; } .hl .tht {  } .fhl .bg { fill: #e7f4ff; } .fhls .bg {  } .r.hl { stroke: #1b9bff; } .dim { opacity: 0.25; }</style><g class="drawing-wrapper" transform="translate(2, 18) scale(1,1)"><g class="rs"><path d="M 224 376 m -1, 0 a 1,1 0 1,0 2,0 a 1,1 0 1,0 -2,0 M 224 376 m -0.5, 0 a 0.5,0.5 0 1,0 1,0 a 0.5,0.5 0 1,0 -1,0  M224 376 L224 376 212 376 M 224 382 m -1, 0 a 1,1 0 1,0 2,0 a 1,1 0 1,0 -2,0 M 224 382 m -0.5, 0 a 0.5,0.5 0 1,0 1,0 a 0.5,0.5 0 1,0 -1,0  M224 382 L224 382 217 376 224 370 M 224 370 m -1, 0 a 1,1 0 1,0 2,0 a 1,1 0 1,0 -2,0 M 224 370 m -0.5, 0 a 0.5,0.5 0 1,0 1,0 a 0.5,0.5 0 1,0 -1,0  M212 376 Q 195.84 376, 179.68 231.5 T 147.36 87 M 135.36 87 m -1, 0 a 1,1 0 1,0 2,0 a 1,1 0 1,0 -2,0 M 135.36 87 m -0.5, 0 a 0.5,0.5 0 1,0 1,0 a 0.5,0.5 0 1,0 -1,0  M135.36 87 L135.36 87 147.36 87 M141.36 93 L141.36 93 141.36 81" id="h1302459796" class="r"></path><path d="M 332.02 401 m -1, 0 a 1,1 0 1,0 2,0 a 1,1 0 1,0 -2,0 M 332.02 401 m -0.5, 0 a 0.5,0.5 0 1,0 1,0 a 0.5,0.5 0 1,0 -1,0  M332.02 401 L332.02 401 344.02 401 M 332.02 407 m -1, 0 a 1,1 0 1,0 2,0 a 1,1 0 1,0 -2,0 M 332.02 407 m -0.5, 0 a 0.5,0.5 0 1,0 1,0 a 0.5,0.5 0 1,0 -1,0  M332.02 407 L332.02 407 339.02 401 332.02 395 M 332.02 395 m -1, 0 a 1,1 0 1,0 2,0 a 1,1 0 1,0 -2,0 M 332.02 395 m -0.5, 0 a 0.5,0.5 0 1,0 1,0 a 0.5,0.5 0 1,0 -1,0  M344.02 401 Q 389.52 401, 435.01 333.5 T 526 266 M 538 266 m -1, 0 a 1,1 0 1,0 2,0 a 1,1 0 1,0 -2,0 M 538 266 m -0.5, 0 a 0.5,0.5 0 1,0 1,0 a 0.5,0.5 0 1,0 -1,0  M538 266 L538 266 526 266 M532 272 L532 272 532 260" id="h4266158782" class="r"></path><path d="M 379 182 m -1, 0 a 1,1 0 1,0 2,0 a 1,1 0 1,0 -2,0 M 379 182 m -0.5, 0 a 0.5,0.5 0 1,0 1,0 a 0.5,0.5 0 1,0 -1,0  M379 182 L379 182 367 182 M 379 188 m -1, 0 a 1,1 0 1,0 2,0 a 1,1 0 1,0 -2,0 M 379 188 m -0.5, 0 a 0.5,0.5 0 1,0 1,0 a 0.5,0.5 0 1,0 -1,0  M379 188 L379 188 372 182 379 176 M 379 176 m -1, 0 a 1,1 0 1,0 2,0 a 1,1 0 1,0 -2,0 M 379 176 m -0.5, 0 a 0.5,0.5 0 1,0 1,0 a 0.5,0.5 0 1,0 -1,0  M367 182 Q 312.09 182, 257.18 134.5 T 147.36 87 M 135.36 87 m -1, 0 a 1,1 0 1,0 2,0 a 1,1 0 1,0 -2,0 M 135.36 87 m -0.5, 0 a 0.5,0.5 0 1,0 1,0 a 0.5,0.5 0 1,0 -1,0  M135.36 87 L135.36 87 147.36 87 M141.36 93 L141.36 93 141.36 81" id="h2134613041" class="r"></path><path d="M 704 115 m -1, 0 a 1,1 0 1,0 2,0 a 1,1 0 1,0 -2,0 M 704 115 m -0.5, 0 a 0.5,0.5 0 1,0 1,0 a 0.5,0.5 0 1,0 -1,0  M704 115 L704 115 692 115 M 704 121 m -1, 0 a 1,1 0 1,0 2,0 a 1,1 0 1,0 -2,0 M 704 121 m -0.5, 0 a 0.5,0.5 0 1,0 1,0 a 0.5,0.5 0 1,0 -1,0  M704 121 L704 121 697 115 704 109 M 704 109 m -1, 0 a 1,1 0 1,0 2,0 a 1,1 0 1,0 -2,0 M 704 109 m -0.5, 0 a 0.5,0.5 0 1,0 1,0 a 0.5,0.5 0 1,0 -1,0  M692 115 Q 644.77 115, 597.53 98.5 T 503.05 82 M 491.05 82 m -1, 0 a 1,1 0 1,0 2,0 a 1,1 0 1,0 -2,0 M 491.05 82 m -0.5, 0 a 0.5,0.5 0 1,0 1,0 a 0.5,0.5 0 1,0 -1,0  M491.05 82 L491.05 82 503.05 82 M497.05 88 L497.05 88 497.05 76" id="h3391373556" class="r"></path><path d="M 804.7 140 m -1, 0 a 1,1 0 1,0 2,0 a 1,1 0 1,0 -2,0 M 804.7 140 m -0.5, 0 a 0.5,0.5 0 1,0 1,0 a 0.5,0.5 0 1,0 -1,0  M804.7 140 L804.7 140 816.7 140 M 804.7 146 m -1, 0 a 1,1 0 1,0 2,0 a 1,1 0 1,0 -2,0 M 804.7 146 m -0.5, 0 a 0.5,0.5 0 1,0 1,0 a 0.5,0.5 0 1,0 -1,0  M804.7 146 L804.7 146 811.7 140 804.7 134 M 804.7 134 m -1, 0 a 1,1 0 1,0 2,0 a 1,1 0 1,0 -2,0 M 804.7 134 m -0.5, 0 a 0.5,0.5 0 1,0 1,0 a 0.5,0.5 0 1,0 -1,0  M816.7 140 C 866.7 140, 948.306 266, 680.69 266 M 668.69 266 m -1, 0 a 1,1 0 1,0 2,0 a 1,1 0 1,0 -2,0 M 668.69 266 m -0.5, 0 a 0.5,0.5 0 1,0 1,0 a 0.5,0.5 0 1,0 -1,0  M668.69 266 L668.69 266 680.69 266 M674.69 272 L674.69 272 674.69 260" id="h3149642575" class="r"></path><path d="M 668.69 366 m -1, 0 a 1,1 0 1,0 2,0 a 1,1 0 1,0 -2,0 M 668.69 366 m -0.5, 0 a 0.5,0.5 0 1,0 1,0 a 0.5,0.5 0 1,0 -1,0  M668.69 366 L668.69 366 680.69 366 M 668.69 372 m -1, 0 a 1,1 0 1,0 2,0 a 1,1 0 1,0 -2,0 M 668.69 372 m -0.5, 0 a 0.5,0.5 0 1,0 1,0 a 0.5,0.5 0 1,0 -1,0  M668.69 372 L668.69 372 675.69 366 668.69 360 M 668.69 360 m -1, 0 a 1,1 0 1,0 2,0 a 1,1 0 1,0 -2,0 M 668.69 360 m -0.5, 0 a 0.5,0.5 0 1,0 1,0 a 0.5,0.5 0 1,0 -1,0  M680.69 366 C 950.4659999999999 366, 868.05 541, 818.05 541 M 806.05 541 m -1, 0 a 1,1 0 1,0 2,0 a 1,1 0 1,0 -2,0 M 806.05 541 m -0.5, 0 a 0.5,0.5 0 1,0 1,0 a 0.5,0.5 0 1,0 -1,0  M806.05 541 L806.05 541 818.05 541 M812.05 547 L812.05 547 812.05 535" id="h593730244" class="r"></path><path d="M 538 391 m -1, 0 a 1,1 0 1,0 2,0 a 1,1 0 1,0 -2,0 M 538 391 m -0.5, 0 a 0.5,0.5 0 1,0 1,0 a 0.5,0.5 0 1,0 -1,0  M538 391 L538 391 526 391 M 538 397 m -1, 0 a 1,1 0 1,0 2,0 a 1,1 0 1,0 -2,0 M 538 397 m -0.5, 0 a 0.5,0.5 0 1,0 1,0 a 0.5,0.5 0 1,0 -1,0  M538 397 L538 397 531 391 538 385 M 538 385 m -1, 0 a 1,1 0 1,0 2,0 a 1,1 0 1,0 -2,0 M 538 385 m -0.5, 0 a 0.5,0.5 0 1,0 1,0 a 0.5,0.5 0 1,0 -1,0  M526 391 C 255.2 391, 338 557, 388 557 M 400 557 m -1, 0 a 1,1 0 1,0 2,0 a 1,1 0 1,0 -2,0 M 400 557 m -0.5, 0 a 0.5,0.5 0 1,0 1,0 a 0.5,0.5 0 1,0 -1,0  M400 557 L400 557 388 557 M394 563 L394 563 394 551" id="h4155822630" class="r"></path><path d="M 538 416 m -1, 0 a 1,1 0 1,0 2,0 a 1,1 0 1,0 -2,0 M 538 416 m -0.5, 0 a 0.5,0.5 0 1,0 1,0 a 0.5,0.5 0 1,0 -1,0  M538 416 L538 416 526 416 M 538 422 m -1, 0 a 1,1 0 1,0 2,0 a 1,1 0 1,0 -2,0 M 538 422 m -0.5, 0 a 0.5,0.5 0 1,0 1,0 a 0.5,0.5 0 1,0 -1,0  M538 422 L538 422 531 416 538 410 M 538 410 m -1, 0 a 1,1 0 1,0 2,0 a 1,1 0 1,0 -2,0 M 538 410 m -0.5, 0 a 0.5,0.5 0 1,0 1,0 a 0.5,0.5 0 1,0 -1,0  M526 416 Q 431.34 416, 336.68 251.5 T 147.36 87 M 135.36 87 m -1, 0 a 1,1 0 1,0 2,0 a 1,1 0 1,0 -2,0 M 135.36 87 m -0.5, 0 a 0.5,0.5 0 1,0 1,0 a 0.5,0.5 0 1,0 -1,0  M135.36 87 L135.36 87 147.36 87 M141.36 93 L141.36 93 141.36 81" id="h2719655247" class="r"></path><path d="M 538 441 m -1, 0 a 1,1 0 1,0 2,0 a 1,1 0 1,0 -2,0 M 538 441 m -0.5, 0 a 0.5,0.5 0 1,0 1,0 a 0.5,0.5 0 1,0 -1,0  M538 441 L538 441 526 441 M 538 447 m -1, 0 a 1,1 0 1,0 2,0 a 1,1 0 1,0 -2,0 M 538 447 m -0.5, 0 a 0.5,0.5 0 1,0 1,0 a 0.5,0.5 0 1,0 -1,0  M538 447 L538 447 531 441 538 435 M 538 435 m -1, 0 a 1,1 0 1,0 2,0 a 1,1 0 1,0 -2,0 M 538 435 m -0.5, 0 a 0.5,0.5 0 1,0 1,0 a 0.5,0.5 0 1,0 -1,0  M526 441 Q 431.34 441, 336.68 264 T 147.36 87 M 135.36 87 m -1, 0 a 1,1 0 1,0 2,0 a 1,1 0 1,0 -2,0 M 135.36 87 m -0.5, 0 a 0.5,0.5 0 1,0 1,0 a 0.5,0.5 0 1,0 -1,0  M135.36 87 L135.36 87 147.36 87 M141.36 93 L141.36 93 141.36 81" id="h4079426313" class="r"></path></g><g class="hrs"></g><g class="ts"><svg width="105.36" height="125" x="30" y="30" id="h2129428134" class="t"><rect height="40" width="105.36" class="th"></rect><text x="13" y="25" class="tht">teams</text><rect height="85" width="105.36" class="t-bg"></rect><text x="13" y="61" class="tf pk">id<tspan x="92.36" class="ty">int</tspan></text><path d="M7,14A2,2 0 0,1 5,12A2,2 0 0,1 7,10A2,2 0 0,1 9,12A2,2 0 0,1 7,14M12.65,10C11.83,7.67 9.61,6 7, 6A6, 6 0 0, 0 1, 12A6, 6 0 0, 0 7, 18C9.61, 18 11.83, 16.33 12.65, 14H17V18H21V14H23V10H12.65Z" class="i pk" transform="translate(59.686171875, 48) scale(0.65)"></path><text x="13" y="86" class="tf">name<tspan x="92.36" class="ty">string</tspan></text><text x="13" y="111" class="tf">city<tspan x="92.36" class="ty">string</tspan></text></svg><svg width="105.36" height="100" x="400" y="500" id="h441037955" class="t"><rect height="40" width="105.36" class="th"></rect><text x="13" y="25" class="tht">referees</text><rect height="60" width="105.36" class="t-bg"></rect><text x="13" y="61" class="tf pk">id<tspan x="92.36" class="ty">int</tspan></text><path d="M7,14A2,2 0 0,1 5,12A2,2 0 0,1 7,10A2,2 0 0,1 9,12A2,2 0 0,1 7,14M12.65,10C11.83,7.67 9.61,6 7, 6A6, 6 0 0, 0 1, 12A6, 6 0 0, 0 7, 18C9.61, 18 11.83, 16.33 12.65, 14H17V18H21V14H23V10H12.65Z" class="i pk" transform="translate(59.686171875, 48) scale(0.65)"></path><text x="13" y="86" class="tf">name<tspan x="92.36" class="ty">string</tspan></text></svg><svg width="116.05" height="125" x="690" y="484" id="h2259709164" class="t"><rect height="40" width="116.05" class="th"></rect><text x="13" y="25" class="tht">seasons</text><rect height="85" width="116.05" class="t-bg"></rect><text x="13" y="61" class="tf pk">id<tspan x="103.05" class="ty">int</tspan></text><path d="M7,14A2,2 0 0,1 5,12A2,2 0 0,1 7,10A2,2 0 0,1 9,12A2,2 0 0,1 7,14M12.65,10C11.83,7.67 9.61,6 7, 6A6, 6 0 0, 0 1, 12A6, 6 0 0, 0 7, 18C9.61, 18 11.83, 16.33 12.65, 14H17V18H21V14H23V10H12.65Z" class="i pk" transform="translate(70.376171875, 48) scale(0.65)"></path><text x="13" y="86" class="tf">startdate<tspan x="103.05" class="ty">date</tspan></text><text x="13" y="111" class="tf">enddate<tspan x="103.05" class="ty">date</tspan></text></svg><svg width="108.02" height="150" x="224" y="269" id="h2351287931" class="t"><rect height="40" width="108.02" class="th"></rect><text x="13" y="25" class="tht">result</text><rect height="110" width="108.02" class="t-bg"></rect><text x="13" y="61" class="tf pk">id<tspan x="95.02" class="ty">int</tspan></text><path d="M7,14A2,2 0 0,1 5,12A2,2 0 0,1 7,10A2,2 0 0,1 9,12A2,2 0 0,1 7,14M12.65,10C11.83,7.67 9.61,6 7, 6A6, 6 0 0, 0 1, 12A6, 6 0 0, 0 7, 18C9.61, 18 11.83, 16.33 12.65, 14H17V18H21V14H23V10H12.65Z" class="i pk" transform="translate(62.346171874999996, 48) scale(0.65)"></path><text x="13" y="86" class="tf">restult<tspan x="95.02" class="ty">string</tspan></text><text x="13" y="111" class="tf fk">teamid<tspan x="95.02" class="ty">int</tspan></text><text x="13" y="136" class="tf fk">matchid<tspan x="95.02" class="ty">int</tspan></text></svg><svg width="130.69" height="250" x="538" y="209" id="h272759971" class="t"><rect height="40" width="130.69" class="th"></rect><text x="13" y="25" class="tht">matches</text><rect height="210" width="130.69" class="t-bg"></rect><text x="13" y="61" class="tf pk">id<tspan x="117.69" class="ty">int</tspan></text><path d="M7,14A2,2 0 0,1 5,12A2,2 0 0,1 7,10A2,2 0 0,1 9,12A2,2 0 0,1 7,14M12.65,10C11.83,7.67 9.61,6 7, 6A6, 6 0 0, 0 1, 12A6, 6 0 0, 0 7, 18C9.61, 18 11.83, 16.33 12.65, 14H17V18H21V14H23V10H12.65Z" class="i pk" transform="translate(85.016171875, 48) scale(0.65)"></path><text x="13" y="86" class="tf">location<tspan x="117.69" class="ty">string</tspan></text><text x="13" y="111" class="tf">matchdate<tspan x="117.69" class="ty">date</tspan></text><text x="13" y="136" class="tf">matchtime<tspan x="117.69" class="ty">string</tspan></text><text x="13" y="161" class="tf fk">seasonid<tspan x="117.69" class="ty">int</tspan></text><text x="13" y="186" class="tf fk">refereeid<tspan x="117.69" class="ty">int</tspan></text><text x="13" y="211" class="tf fk">hometeamid<tspan x="117.69" class="ty">int</tspan></text><text x="13" y="236" class="tf fk">awayteamid<tspan x="117.69" class="ty">int</tspan></text></svg><svg width="112.05" height="175" x="379" y="25" id="h2511403611" class="t"><rect height="40" width="112.05" class="th"></rect><text x="13" y="25" class="tht">players</text><rect height="135" width="112.05" class="t-bg"></rect><text x="13" y="61" class="tf pk">id<tspan x="99.05" class="ty">int</tspan></text><path d="M7,14A2,2 0 0,1 5,12A2,2 0 0,1 7,10A2,2 0 0,1 9,12A2,2 0 0,1 7,14M12.65,10C11.83,7.67 9.61,6 7, 6A6, 6 0 0, 0 1, 12A6, 6 0 0, 0 7, 18C9.61, 18 11.83, 16.33 12.65, 14H17V18H21V14H23V10H12.65Z" class="i pk" transform="translate(66.376171875, 48) scale(0.65)"></path><text x="13" y="86" class="tf">name<tspan x="99.05" class="ty">string</tspan></text><text x="13" y="111" class="tf">birthday<tspan x="99.05" class="ty">date</tspan></text><text x="13" y="136" class="tf">height<tspan x="99.05" class="ty">int</tspan></text><text x="13" y="161" class="tf fk">teamid<tspan x="99.05" class="ty">int</tspan></text></svg><svg width="100.7" height="125" x="704" y="33" id="h3636817144" class="t"><rect height="40" width="100.7" class="th"></rect><text x="13" y="25" class="tht">goals</text><rect height="85" width="100.7" class="t-bg"></rect><text x="13" y="61" class="tf pk">id<tspan x="87.7" class="ty">int</tspan></text><path d="M7,14A2,2 0 0,1 5,12A2,2 0 0,1 7,10A2,2 0 0,1 9,12A2,2 0 0,1 7,14M12.65,10C11.83,7.67 9.61,6 7, 6A6, 6 0 0, 0 1, 12A6, 6 0 0, 0 7, 18C9.61, 18 11.83, 16.33 12.65, 14H17V18H21V14H23V10H12.65Z" class="i pk" transform="translate(55.026171875, 48) scale(0.65)"></path><text x="13" y="86" class="tf fk">playerid<tspan x="87.7" class="ty">int</tspan></text><text x="13" y="111" class="tf fk">matchid<tspan x="87.7" class="ty">int</tspan></text></svg></g></g><text class="qdbd-link" x="10" y="20">www.quickdatabasediagrams.com</text></svg>